# xmcd
# 
# Track frame offsets:
#     150
#     20715
#     41302
#     61857
# 
# Disc length: 1097
# 
# Revision: 4
# Processed by: cddbd v1.5.2PL0 Copyright (c) Steve Scherf et al.
# Submitted via: fre:ac v1.0.17
# 
DISCID=29044704
DTITLE=TWO-MIX - SUMMER PLANET No.1
DYEAR=1997
DGENRE=J-Pop
TTITLE0=SUMMER PLANET No.1
TTITLE1=WINTER PLANET No.1
TTITLE2=SUMMER PLANET No.1 (Original Karaoke)
TTITLE3=WINTER PLANET No.1 (Original Karaoke)
EXTD=YEAR: 1997
EXTT0=
EXTT1=
EXTT2=
EXTT3=
PLAYORDER=
